<mxfile host="app.diagrams.net" modified="2022-09-10T05:41:52.796Z" agent="5.0 (Windows NT 10.0; Win64; x64) AppleWebKit/537.36 (KHTML, like Gecko) Chrome/105.0.0.0 Safari/537.36 Edg/105.0.1343.27" etag="__Y8XyIkLeI-dtRB-BQW" version="20.0.1" type="github">
  <diagram id="FCjF4JD9UtbETHdW_dVo" name="Page-1">
    <mxGraphModel dx="97" dy="2874" grid="1" gridSize="10" guides="1" tooltips="1" connect="1" arrows="1" fold="1" page="1" pageScale="1" pageWidth="827" pageHeight="1169" math="0" shadow="0">
      <root>
        <mxCell id="0" />
        <mxCell id="1" parent="0" />
        <mxCell id="z84vs1HfbLlzbD-Ck7YU-1" value="Приветствие" style="group" vertex="1" connectable="0" parent="1">
          <mxGeometry x="1080" y="-2020" width="210" height="110" as="geometry" />
        </mxCell>
        <mxCell id="z84vs1HfbLlzbD-Ck7YU-2" value="&lt;font&gt;Выполнение проверки ТС&lt;/font&gt;&lt;br&gt;&lt;table width=&quot;181&quot; cellspacing=&quot;0&quot; cellpadding=&quot;0&quot; border=&quot;0&quot;&gt;&lt;tbody&gt;&lt;tr style=&quot;height:14.5pt&quot; height=&quot;19&quot;&gt;  &lt;td style=&quot;height:14.5pt;width:136pt&quot; width=&quot;181&quot; height=&quot;19&quot;&gt;s2&lt;/td&gt;&lt;/tr&gt;&lt;/tbody&gt;&lt;/table&gt;Черновиков 3076562" style="rounded=1;whiteSpace=wrap;html=1;" vertex="1" parent="z84vs1HfbLlzbD-Ck7YU-1">
          <mxGeometry width="200.45606406109138" height="97.77777777777779" as="geometry" />
        </mxCell>
        <mxCell id="z84vs1HfbLlzbD-Ck7YU-3" value="&lt;font style=&quot;font-size: 15px;&quot;&gt;99,98%&lt;/font&gt;" style="rounded=1;whiteSpace=wrap;html=1;fillColor=#d5e8d4;strokeColor=#82b366;fontSize=8;fontStyle=1" vertex="1" parent="z84vs1HfbLlzbD-Ck7YU-1">
          <mxGeometry x="144.77382404412157" y="85.55555555555556" width="65.22617595587846" height="24.444444444444446" as="geometry" />
        </mxCell>
      </root>
    </mxGraphModel>
  </diagram>
</mxfile>
